<?xml version="1.0" standalone="no"?> <!DOCTYPE svg PUBLIC "-//W3C//DTD SVG 1.0//EN" "http://www.w3.org/TR/2001/REC-SVG-20010904/DTD/svg10.dtd" > <svg xmlns="http://www.w3.org/2000/svg" width="100%" height="100%">
<defs >
<font horiz-adv-x="0" ><font-face
    font-family="Beer Goggles"
    units-per-em="1000"
    panose-1="0 0 4 0 0 0 0 0 0 0"
    ascent="800"
    descent="-200"
    alphabetic="0" />
<missing-glyph horiz-adv-x="500" d="M63 0V800H438V0H63ZM125 63H375V738H125V63Z" />
<glyph unicode=" " glyph-name="space" horiz-adv-x="333" />
<glyph unicode="!" glyph-name="exclam" horiz-adv-x="534" d="M572 642Q576 564 490 434Q455 381 341 239H220Q235 288 274 372Q316 463 330 505Q336 523 350 621Q362 708 378 737Q482 703 572 642ZM344 159Q344 139 307 13Q258 5 162 -22H127Q115 0 115 45Q115
185 236 185H331Q344 185 344 159Z" />
<glyph unicode="#" glyph-name="numbersign" horiz-adv-x="699" d="M749 536Q749 519 728 481Q710 449 694 431Q682 417 646 397Q604 373 593 366Q564 349 532 306T491 228L506 213Q513 215 534 227Q550 237 563 237Q573 237 586 233Q577 200 556 129Q519 112
441 69Q436 57 436 37Q436 8 448 -50Q431 -71 392 -71Q341 -71 330 -24L318 63Q303 110 241 110Q214 110 209 55Q208 30 204 -19Q147 7 89 52Q87 76 93 118Q100 165 100 184Q100 186 85 201T69 227Q69 239 84 260Q102 286 105 291Q112 291 130 283T159 274Q173
274 216 323V345Q188 357 164 381Q192 464 220 464Q230 464 259 447T297 429Q308 429 343 480Q389 546 406 563Q411 568 436 574L478 584L517 573Q487 525 440 434L454 420Q534 440 575 509Q593 549 629 629Q659 693 721 705Q731 690 731 671Q731 656 722 629T712
591Q712 569 749 566V536ZM405 289L331 300Q292 274 276 226Q305 197 328 197Q358 197 405 289Z" />
<glyph unicode="$" glyph-name="dollar" horiz-adv-x="665" d="M713 513Q713 448 588 448Q562 448 562 448Q534 449 539 449Q534 464 529 479T513 504Q494 491 476 469Q454 443 454 425Q454 413 494 375Q542 329 551 317Q574 286 580 252Q583 235 583 189Q583
4 477 4Q432 4 376 32Q373 28 363 16Q360 5 379 -36Q338 -35 313 8Q301 32 275 80Q262 103 200 143T115 209Q102 223 93 251T83 300Q83 332 93 344T134 356Q153 356 191 341Q226 328 246 316Q250 276 250 274Q254 251 266 235Q271 235 280 237Q324 292 324 332Q324
341 291 385Q231 465 231 513Q231 563 267 622Q308 689 361 689Q376 689 415 675T468 661Q483 661 523 689Q535 682 552 652T581 617Q609 608 665 588Q713 569 713 513ZM433 495Q440 509 439 526Q438 543 431 550Q407 538 390 520V486L433 495ZM417 217Q417 247
374 272Q343 216 343 198Q343 164 386 161Q417 194 417 217Z" />
<glyph unicode="%" glyph-name="percent" horiz-adv-x="581" d="M385 485Q385 441 347 405T265 369Q203 369 156 396Q100 428 100 485Q100 532 119 589Q146 669 192 669Q252 669 318 607T385 485ZM623 481Q585 415 493 358Q433 323 314 250Q210 183 144 93H86Q87
125 145 187Q192 238 232 266Q257 281 368 349Q447 397 547 481Q560 492 588 492Q612 492 623 481ZM623 -8Q623 -38 604 -61T554 -85Q488 -85 406 -8T323 135Q323 172 354 205T423 238Q464 238 522 206Q584 172 597 136Q605 113 614 65T623 -8ZM292 519Q288 585
246 585Q225 585 215 547Q208 522 208 492Q208 439 235 431Q260 442 276 470T292 519ZM515 38Q515 90 497 144Q494 152 480 160T456 169Q423 136 423 100Q423 67 441 34T488 0Q500 0 507 12T515 38Z" />
<glyph unicode="&amp;" glyph-name="ampersand" horiz-adv-x="802" d="M859 355Q836 336 814 317Q781 287 781 274Q781 263 798 238T815 206Q695 107 680 107Q671 107 648 116T614 125Q597 125 536 70Q458 -1 415 -31Q336 -86 276 -86Q213 -86 159 -40T105 68Q105
123 168 173Q188 189 284 243Q347 279 348 305Q353 435 448 576Q552 730 667 730Q723 730 768 695Q816 657 816 603Q816 575 777 535Q755 513 705 473Q667 443 667 436Q667 408 715 379Q719 381 746 404Q768 423 781 423Q803 423 859 385V355ZM675 584V613Q655
633 636 633Q607 633 584 607T561 550Q561 522 601 502Q675 551 675 584ZM482 155Q482 172 446 192T390 212Q360 212 318 156Q281 106 281 85Q281 67 297 52T333 37Q349 37 411 78Q482 125 482 155Z" />
<glyph unicode="0" glyph-name="zero" horiz-adv-x="762" d="M816 506Q816 407 704 261Q621 153 495 49Q336 -81 239 -81Q188 -81 145 -36T101 61Q101 150 263 385Q275 403 354 530Q412 624 460 679Q478 700 528 715Q568 727 592 727Q670 727 743 656T816 506ZM651
520Q651 546 642 568Q626 607 587 607Q548 607 527 569T419 366Q396 327 352 250Q303 163 303 126Q303 88 334 75Q378 82 471 194Q542 279 584 349Q651 460 651 520Z" />
<glyph unicode="1" glyph-name="one" horiz-adv-x="595" d="M637 623Q637 544 557 409Q458 242 436 175Q424 139 424 88Q424 38 436 -37Q425 -64 379 -86Q342 -104 304 -111Q280 -74 260 -14T239 88Q239 121 292 263Q294 264 294 266Q294 269 279 269Q267 269
210 236Q143 197 118 189Q107 195 89 211Q97 231 115 270Q131 304 152 318Q170 330 213 347T276 377Q316 404 386 482Q452 556 481 603Q497 629 542 653Q561 663 616 685Q637 665 637 623Z" />
<glyph unicode="2" glyph-name="two" horiz-adv-x="799" d="M856 622Q856 572 769 451Q699 353 630 285Q538 194 403 110Q403 103 421 90Q471 69 519 69Q531 69 582 80Q638 92 670 98Q691 56 711 -25Q678 -41 616 -62Q545 -85 519 -85Q459 -85 290 -8Q106 76 106
132Q106 158 134 195T186 239Q228 249 311 269Q417 297 487 337Q577 388 577 449Q577 476 550 482Q548 483 519 483Q476 483 401 428Q400 428 394 422T375 415Q341 415 260 496Q301 577 418 598Q473 605 581 620Q606 624 699 657Q777 685 788 685Q856 685 856 622Z"
/>
<glyph unicode="3" glyph-name="three" horiz-adv-x="654" d="M701 436Q701 381 651 329Q609 285 551 260V237Q574 223 597 144Q617 74 617 34Q617 -97 533 -97Q476 -97 313 0Q167 87 134 122Q121 135 107 169T93 221Q93 258 150 258Q192 258 260 234Q268 201
291 144Q304 125 328 108T374 90Q430 90 430 174Q430 215 421 234Q408 262 367 280Q361 284 346 298Q345 319 365 344T407 370Q415 370 429 366T453 361Q481 361 502 377T523 421Q523 444 502 463T458 482Q447 482 423 468T388 454Q377 454 341 487Q315 511 281
542Q299 595 333 608Q346 613 388 613Q455 613 572 556Q701 493 701 436Z" />
<glyph unicode="4" glyph-name="four" horiz-adv-x="809" d="M867 584Q865 543 785 398T704 249Q704 238 734 213T765 178Q765 162 733 76Q722 76 703 81T673 86Q638 86 638 43Q638 35 639 20T641 -4Q641 -11 640 -16Q627 -10 562 9Q504 26 473 47Q470 54 470
62Q470 71 476 92T483 123Q483 148 453 168Q377 171 289 135Q230 111 117 45Q102 60 102 86Q102 108 117 154Q134 207 157 237Q193 285 246 334Q280 365 349 427Q380 455 523 554Q687 667 714 667Q729 667 780 637Q796 628 867 584ZM643 454L620 464Q577 457 503
409Q426 359 409 323Q429 323 467 317T525 310Q557 310 577 336Q589 352 608 396Q626 436 643 454Z" />
<glyph unicode="5" glyph-name="five" horiz-adv-x="805" d="M862 612Q862 584 843 527Q833 517 816 517Q810 517 803 518Q776 529 726 540Q673 552 647 552Q640 552 627 553T606 554Q545 554 504 448Q502 447 502 445Q502 442 518 442Q530 442 578 465T638 488Q684
488 722 447T761 360Q761 272 659 157Q592 81 480 0Q343 -99 271 -99Q210 -99 138 -31Q149 -8 207 33T289 75Q295 75 317 57T353 39Q414 39 491 159Q560 266 560 309Q560 343 537 343Q534 343 530 342T523 341Q489 341 421 280L319 188Q268 151 205 151Q184 151
165 156Q202 220 254 299L346 440Q364 469 387 526Q411 589 425 614Q442 645 526 673Q602 699 647 699Q682 699 759 677Q862 648 862 612Z" />
<glyph unicode="6" glyph-name="six" horiz-adv-x="694" d="M744 623Q744 604 733 596Q721 593 658 567Q600 544 595 544Q591 544 576 560T545 577Q506 577 425 467Q355 372 345 338V328Q391 363 483 433Q564 494 612 494Q640 494 677 460Q680 436 674 390Q659
345 555 190Q531 151 481 74Q398 -51 277 -51Q191 -51 137 23Q91 86 91 151Q91 260 232 411Q274 456 497 655Q549 701 624 701Q660 701 694 679T744 623ZM446 263Q446 276 427 296Q370 282 312 231Q248 174 248 122Q248 105 257 84Q272 48 306 48Q353 48 402 136Q446
215 446 263Z" />
<glyph unicode="7" glyph-name="seven" horiz-adv-x="688" d="M737 629Q737 566 569 387Q503 318 370 179Q335 135 318 84Q314 73 309 40Q307 26 315 -4T323 -45V-85Q282 -72 200 -43Q123 -13 123 41Q123 107 192 181Q231 223 328 297Q409 359 421 382Q388 387
323 399Q234 416 185 451Q189 480 231 563Q258 553 310 544Q352 537 373 537Q506 537 706 677Q737 663 737 629Z" />
<glyph unicode="8" glyph-name="eight" horiz-adv-x="766" d="M821 500Q821 445 754 370T631 277Q635 256 656 188Q674 130 674 116Q674 48 653 -7Q624 -84 563 -84Q515 -84 360 4Q301 39 182 108Q154 124 135 158T116 226Q116 294 173 358T298 434Q312 445 326
459Q305 496 305 537Q305 604 337 647Q373 695 437 695Q462 695 556 664Q821 577 821 500ZM610 474Q610 501 602 513Q586 537 537 537Q463 537 463 463Q463 447 477 424Q498 389 537 389Q567 389 588 416T610 474ZM484 216Q484 259 463 287T400 316Q316 316 316
221Q316 190 332 160Q356 116 405 116Q444 116 466 148Q484 175 484 216Z" />
<glyph unicode="9" glyph-name="nine" horiz-adv-x="817" d="M875 389Q875 320 793 191Q717 72 654 22Q642 13 460 -16Q282 -44 245 -44Q213 -44 182 -30Q147 -15 136 11V59Q212 102 360 175L398 131Q423 102 437 102Q479 102 536 150T595 240Q580 244 558 244Q544
244 516 241T474 237Q302 237 302 347Q302 402 346 524Q383 626 410 672Q422 693 456 710T516 727Q629 727 752 614T875 389ZM708 451Q708 492 678 531T609 571Q568 571 536 505Q510 452 510 415Q510 380 538 360Q563 342 599 342Q643 342 675 374T708 451Z" />
<glyph unicode=":" glyph-name="colon" horiz-adv-x="333" />
<glyph unicode="?" glyph-name="question" horiz-adv-x="682" d="M731 601Q731 543 668 453Q613 373 558 332T395 237Q394 237 385 212T360 187H329Q310 187 252 234T194 295Q194 348 275 379Q322 392 369 404Q423 426 463 462V504Q433 531 403 531Q391 531 350
510T296 488Q274 488 229 526T183 585Q183 643 273 668Q324 682 382 682Q467 682 565 669Q731 647 731 601ZM427 -92L271 -21Q186 27 161 95L175 219Q208 203 275 171Q331 143 371 99Q388 81 402 34Q425 -39 426 -42Q432 -58 432 -71Q432 -82 427 -92Z" />
<glyph unicode="@" glyph-name="at" horiz-adv-x="829" d="M888 546Q888 528 878 492T858 440Q833 397 675 224Q500 33 461 33Q454 33 446 37T431 41Q423 41 387 7T323 -28Q264 -28 223 35Q190 85 190 128Q190 187 287 296Q367 385 478 470Q583 550 612 550Q620
550 631 546T651 541Q661 541 684 567T719 601H758Q736 517 629 367T508 150L522 136Q828 415 828 541Q828 590 794 626T711 662Q632 662 445 507Q363 439 190 275Q169 255 152 205Q138 164 138 145Q138 60 209 -14T366 -88Q431 -88 479 -51Q510 -27 565 40T658
135H689Q602 5 556 -44Q466 -140 379 -140Q272 -140 179 -49T86 149Q86 214 129 275Q165 326 236 384Q285 422 381 499Q384 502 490 597Q560 660 597 684Q617 697 655 709T715 722Q798 722 847 660Q888 609 888 546ZM578 434Q578 452 565 464Q490 432 387 317Q276
193 276 119Q276 99 285 79Q302 41 336 41Q370 41 384 70Q413 129 505 293Q578 424 578 434Z" />
<glyph unicode="A" glyph-name="A" horiz-adv-x="581" d="M622 157Q604 154 549 135T484 115Q476 115 449 138T413 162Q401 162 277 78Q280 50 280 -2Q214 -30 152 -42Q134 -22 113 69Q94 153 94 194Q94 296 178 413Q242 502 343 583Q455 672 549 697Q561 676
556 646Q550 611 529 508Q512 427 512 414Q512 339 540 284Q543 278 622 157ZM346 252Q329 301 304 390Q281 365 263 315T244 229Q244 220 248 212T253 202Q304 215 346 252Z" />
<glyph unicode="B" glyph-name="B" horiz-adv-x="686" d="M735 672Q735 631 641 501Q607 454 538 361Q546 357 567 357T596 352Q620 339 636 293Q650 253 650 219Q650 139 579 72Q522 18 435 -16Q358 -46 308 -46Q254 -46 241 -34Q194 9 133 131Q68 262 68 330Q68
369 109 472Q154 586 188 586Q206 586 247 578T308 569Q364 569 452 607Q490 623 593 677Q666 715 688 715Q715 715 725 707T735 672ZM435 410V448Q433 448 422 453T402 458Q386 458 349 449Q307 439 293 437Q265 415 265 373Q265 321 303 321Q339 321 383 344Q435
371 435 410ZM479 176Q479 227 419 227Q409 227 300 200Q300 188 320 144Q344 91 368 91Q395 91 428 109T473 151Q479 163 479 176Z" />
<glyph unicode="C" glyph-name="C" horiz-adv-x="767" d="M822 577Q822 519 797 494T701 423Q624 374 599 374Q588 374 566 401Q540 433 527 441Q490 463 441 463Q369 463 338 430T307 325Q307 242 374 154Q448 57 540 57Q619 57 619 135Q619 156 615 184Q701
205 780 215Q802 170 802 132Q802 36 736 -32T574 -101Q477 -101 356 -6Q270 61 189 167Q89 297 89 379Q89 444 161 530Q238 622 313 622H608Q623 622 673 636T743 651Q774 651 798 630T822 577Z" />
<glyph unicode="D" glyph-name="D" horiz-adv-x="700" d="M750 99Q750 30 716 -12Q680 -57 612 -57Q552 -57 460 -7Q412 21 315 74Q284 88 235 113Q183 142 168 165Q161 176 149 214Q125 290 125 331Q125 464 256 655Q273 689 275 691Q288 711 308 711Q314 711
416 658Q529 600 577 582Q608 571 639 550Q679 524 684 502Q704 407 728 259Q750 122 750 99ZM545 166Q545 182 534 218T520 269Q511 361 509 371Q499 429 478 459Q466 476 439 498Q409 523 393 523Q360 523 338 440Q321 376 321 336Q321 252 343 215T440 144Q490
121 509 121Q545 121 545 166Z" />
<glyph unicode="E" glyph-name="E" horiz-adv-x="700" d="M750 -55Q731 -75 692 -75Q616 -75 501 -9Q332 88 269 114Q247 123 152 128Q117 174 107 208Q100 232 100 287Q100 380 151 470Q196 547 286 700Q347 668 469 605Q587 544 657 517Q658 514 658 510Q658
493 632 455T592 417Q581 417 488 471T383 525Q371 525 358 508Q356 506 333 472Q402 420 563 323Q564 293 575 227Q573 217 554 217Q544 217 449 271Q340 333 297 350Q283 337 283 296Q283 248 306 235Q353 207 447 151Q528 104 597 77Q601 75 639 69Q669 64 682
54Q705 35 750 -55Z" />
<glyph unicode="F" glyph-name="F" horiz-adv-x="760" d="M814 501Q814 485 790 452T750 418Q738 418 645 467T539 516Q513 516 501 497Q483 469 461 432Q472 409 573 377Q667 348 667 315Q667 303 657 276T646 233Q645 233 638 228T618 222Q598 222 527 246T436
271Q363 271 363 168Q363 145 376 97Q391 41 412 -1Q357 -24 249 -73Q207 -37 176 42Q147 117 147 177Q147 222 160 258Q214 407 366 660Q379 682 441 682Q491 682 588 646T724 576Q740 566 773 547Q814 522 814 501Z" />
<glyph unicode="G" glyph-name="G" horiz-adv-x="802" d="M859 446Q858 446 848 441T827 436Q804 436 761 446Q715 456 694 457Q687 465 675 489T654 519Q640 529 607 529Q533 529 456 457Q395 401 352 321T308 193Q308 71 407 71Q444 71 515 110Q598 155 598
202Q598 221 574 239Q541 225 480 202Q467 215 467 239Q467 379 640 379Q661 379 793 350Q793 348 798 336T804 314Q804 306 791 257Q779 213 776 187Q773 167 780 129L791 65Q787 59 773 46Q742 38 550 -26Q391 -79 346 -79Q251 -79 177 -9T103 155Q103 326 488
618Q533 652 560 663Q597 678 650 678Q702 678 771 645Q859 603 859 544V446Z" />
<glyph unicode="H" glyph-name="H" horiz-adv-x="778" d="M834 640Q816 595 770 515Q722 432 705 391Q678 327 678 267Q678 223 718 116Q607 97 566 97Q533 97 512 187Q497 251 497 289Q496 289 491 292T475 296Q460 296 388 248T306 184Q334 129 388 10Q368 -6
334 -26Q292 -51 277 -51Q253 -51 240 -31Q231 -15 212 17Q116 164 116 271Q116 427 200 501Q234 531 313 565Q405 604 436 625Q415 573 381 506L314 375Q322 362 335 362Q344 362 425 407Q496 447 556 479Q579 491 636 595Q689 692 707 692Q725 692 772 672Q813
654 834 640Z" />
<glyph unicode="I" glyph-name="I" horiz-adv-x="452" d="M484 665L370 454Q314 347 314 257Q314 202 347 120Q367 69 419 -34Q408 -45 388 -64Q319 -95 281 -95Q250 -95 200 -10Q165 47 143 102Q105 195 105 252Q105 334 138 425Q175 527 231 567Q267 593 349
619Q456 653 484 665Z" />
<glyph unicode="J" glyph-name="J" horiz-adv-x="721" d="M772 588Q730 543 687 442T644 280Q644 239 673 154T703 28Q703 -3 684 -27T634 -51Q567 -51 349 77Q148 195 122 228Q107 246 98 288Q89 324 89 353Q119 383 153 391Q166 394 213 394Q265 394 293 371Q291
364 291 353Q291 307 313 274Q338 236 381 236Q412 236 422 262T441 341Q451 397 458 420Q470 457 528 551Q590 651 609 651Q623 651 772 588Z" />
<glyph unicode="K" glyph-name="K" horiz-adv-x="773" d="M828 -65Q826 -77 807 -77Q798 -77 778 -68Q752 -56 749 -55Q633 -33 524 95T411 342Q410 342 405 345T389 349Q373 349 334 313Q299 280 289 263T279 219Q279 201 284 173Q291 134 291 130Q246 108 159
71Q140 93 119 144T98 222Q98 332 219 519Q239 550 262 604Q274 633 297 691Q305 710 352 710Q371 710 411 697Q447 685 467 674Q443 602 402 518L415 505Q452 523 522 552Q608 587 627 587Q637 587 697 559Q766 527 795 519Q780 486 691 459Q587 427 557 402Q556
283 648 146Q709 54 828 -65Z" />
<glyph unicode="L" glyph-name="L" horiz-adv-x="651" d="M697 -24Q557 19 549 19Q539 19 518 18T486 17Q406 17 365 3Q342 -5 290 -35T201 -77Q123 52 123 149Q123 267 280 515Q289 530 312 588T352 666Q376 696 440 696H535Q547 684 547 663Q547 622 439 435T330
191Q330 177 355 158Q422 187 491 187Q600 187 647 143L697 -24Z" />
<glyph unicode="M" glyph-name="M" horiz-adv-x="877" d="M940 592Q890 502 840 411Q778 287 778 223Q778 228 802 66Q753 89 653 111Q642 129 633 166T624 227Q624 258 711 476Q635 420 584 331Q530 236 530 147Q530 123 535 103Q531 87 484 62Q441 39 432 39Q397
39 346 125Q309 187 301 213Q297 225 293 266Q289 301 284 331Q280 331 272 328Q248 283 248 223Q248 155 268 101Q279 70 305 32Q325 2 325 -12Q325 -29 280 -56Q240 -80 231 -80Q205 -80 153 25Q105 123 96 171Q94 182 94 219Q94 305 160 422Q170 442 191 480T233
531Q381 624 536 689Q547 687 547 668Q547 660 444 352Q447 344 457 330L632 559Q738 697 752 697Q771 697 846 652Q901 619 940 592Z" />
<glyph unicode="N" glyph-name="N" horiz-adv-x="828" d="M887 623Q866 571 811 479Q754 384 734 336Q701 258 706 187Q707 178 714 154T721 118V70Q697 74 662 74Q646 74 614 72T565 70Q550 70 301 244Q296 234 296 187Q296 122 322 70Q357 0 365 -32Q282 -96
248 -96Q230 -96 189 -24Q113 108 113 200Q113 271 150 362T238 503Q278 543 354 586Q419 619 483 652Q515 627 529 537L555 373Q570 373 580 389Q679 548 741 687H777Q788 687 887 623Z" />
<glyph unicode="O" glyph-name="O" horiz-adv-x="757" d="M811 538Q811 495 776 422Q763 399 706 294Q691 264 662 205Q630 142 603 105Q560 47 488 0Q407 -52 344 -52Q254 -52 176 28T98 198Q98 241 102 256Q120 320 250 417Q290 446 370 506Q439 560 526 625Q606
677 664 677Q725 677 768 638T811 538ZM607 468Q607 513 574 513Q532 513 448 443Q381 387 342 338Q279 259 279 202Q279 162 294 130Q318 79 369 79Q388 79 421 96T464 130Q496 185 554 325Q607 454 607 468Z" />
<glyph unicode="P" glyph-name="P" horiz-adv-x="721" d="M773 619Q773 507 495 224Q469 198 413 171Q397 163 319 131Q339 61 403 -45Q398 -50 390 -62Q316 -91 277 -91Q223 -91 162 53Q109 178 109 229Q109 290 143 376T220 502Q231 512 261 513Q276 513 307
513Q322 513 331 516Q411 540 547 623Q659 691 702 691Q732 691 752 670T773 619ZM495 408V446Q487 446 475 455Q397 425 362 398Q303 353 303 292Q303 273 313 262H341Q365 271 402 290Q427 312 456 346Q495 390 495 408Z" />
<glyph unicode="Q" glyph-name="Q" horiz-adv-x="819" d="M878 543Q878 475 829 393Q808 358 737 265Q687 200 687 174Q687 165 726 141T765 109Q765 100 756 75T747 36Q740 35 730 35Q710 35 671 43T613 52Q601 52 559 18Q506 -25 473 -44Q415 -78 365 -78Q266
-78 185 0T104 178Q104 265 187 347Q213 373 376 497Q391 508 485 587Q556 646 602 674Q621 685 662 699T722 713Q790 713 834 663T878 543ZM678 496Q678 512 665 525T635 539Q584 539 485 452Q408 383 360 321Q287 225 287 161Q287 125 317 93T383 61Q415 61 434
72V103Q419 99 391 127Q400 175 430 188Q449 196 501 197Q524 197 535 204Q678 478 678 496Z" />
<glyph unicode="R" glyph-name="R" horiz-adv-x="767" d="M822 630Q822 563 708 455Q653 405 542 304Q574 273 686 127Q682 113 613 71T530 29Q520 29 424 101T318 173Q305 173 299 169Q289 160 280 151Q309 83 364 -53Q312 -73 275 -73Q189 -73 135 37Q93 123
93 198Q93 332 248 534Q346 531 436 578Q487 608 589 667Q672 715 733 715Q771 715 796 692T822 630ZM568 491L547 512L455 472Q403 448 366 423Q348 411 327 373T305 313Q305 293 316 292Q382 292 464 361Q540 425 568 491Z" />
<glyph unicode="S" glyph-name="S" horiz-adv-x="816" d="M874 635Q874 536 706 451Q666 432 586 392Q567 421 548 449Q537 460 485 460Q444 460 428 454Q398 444 398 412Q398 365 471 344Q504 334 612 321Q694 311 704 293Q728 251 728 174Q728 46 682 -29Q625
-122 505 -122Q394 -122 261 -4Q132 110 107 222V254Q109 266 131 266Q150 266 206 236Q254 211 280 193Q290 186 306 155Q324 119 332 109Q402 14 476 14Q500 14 522 29T544 67Q544 84 533 101T507 127Q383 193 356 211Q255 278 226 347Q214 376 214 412Q214 455
224 476Q240 509 294 543Q332 567 436 581Q566 599 596 608Q622 616 722 653Q803 683 815 683Q846 683 858 674Q874 664 874 635Z" />
<glyph unicode="T" glyph-name="T" horiz-adv-x="732" d="M784 632Q761 585 715 492Q685 435 644 415Q609 398 539 398Q528 398 505 403T471 408Q386 408 373 177Q367 67 480 -98Q466 -112 446 -112Q413 -112 315 -61T200 17T169 104Q157 156 157 182Q157 256
185 322Q199 355 237 416Q265 461 265 481Q265 503 207 538Q161 566 128 586Q142 646 180 721Q239 688 358 622Q448 574 549 574Q612 574 635 581Q653 587 749 632H784Z" />
<glyph unicode="U" glyph-name="U" horiz-adv-x="791" d="M848 492Q848 489 811 431Q702 261 704 163Q704 163 709 82Q712 26 710 -7Q707 -52 692 -72Q675 -96 632 -96Q592 -96 355 23Q134 134 124 143Q96 168 88 195Q85 205 85 234Q85 298 107 335Q173 445 252
590Q264 613 280 661Q300 722 305 734Q409 692 471 648Q474 600 388 459T302 276Q302 222 356 187Q400 158 439 158Q472 158 488 184Q513 245 565 367Q642 536 693 536Q689 536 741 533L760 532Q821 528 848 534V492Z" />
<glyph unicode="V" glyph-name="V" horiz-adv-x="845" d="M905 438Q857 383 730 262Q620 157 575 95Q506 0 492 -105Q402 -67 223 -39Q180 31 167 78Q158 112 158 179Q158 190 181 313Q205 443 213 501Q217 534 215 596Q212 674 212 704H320Q375 704 408 672T442
584Q442 528 405 411T368 238V197Q366 195 366 194Q366 189 384 189Q392 189 548 342T737 495Q763 495 905 438Z" />
<glyph unicode="W" glyph-name="W" horiz-adv-x="933" d="M1000 487Q947 419 842 282Q776 193 776 84Q776 34 810 -68Q809 -79 789 -79Q773 -79 691 -33Q600 18 555 60Q546 68 537 101Q509 199 509 227Q509 275 534 373L528 412Q475 378 425 311T355 182Q346 153
323 79Q266 64 186 16Q158 24 132 69Q120 90 103 143T86 218Q86 241 129 389Q178 556 218 642Q228 662 291 685Q347 705 366 705Q384 705 396 678Q405 657 405 645Q405 600 381 531Q380 528 336 417L349 403Q460 514 564 662Q589 648 639 620Q685 594 707 574Q696
489 655 323Q653 322 653 320Q653 317 668 317Q677 317 759 412T862 507Q900 507 1000 487Z" />
<glyph unicode="X" glyph-name="X" horiz-adv-x="739" d="M792 488Q740 453 541 336Q542 155 733 -65H705Q698 -66 625 -23Q542 26 510 44Q488 56 469 85Q443 124 385 259H364Q333 228 303 171Q268 104 254 85Q232 54 180 31Q151 18 93 -8V45Q93 76 119 131Q156
210 252 321Q333 415 333 429Q333 473 315 542Q295 619 267 654Q284 683 358 683Q444 683 471 631Q485 604 488 535Q490 483 512 483Q520 483 577 520T646 558Q660 558 709 532L792 488Z" />
<glyph unicode="Y" glyph-name="Y" horiz-adv-x="753" d="M807 660Q807 654 660 514Q489 351 413 266Q368 216 368 93Q368 36 379 -2Q376 -24 323 -54Q299 -68 250 -95Q202 -54 186 19Q179 50 172 146Q171 155 159 178Q146 198 143 216Q115 358 115 419V491Q212
517 347 581Q370 559 384 510Q403 444 409 431Q455 455 518 554L616 708Q624 712 662 712Q677 712 796 685Q801 681 806 676Q807 673 807 660Z" />
<glyph unicode="Z" glyph-name="Z" horiz-adv-x="763" d="M818 651Q818 617 810 601Q798 577 751 533Q592 386 314 75Q314 65 323 57T343 48Q410 48 493 90Q611 150 626 155Q626 141 635 112T645 69Q645 48 568 4Q429 -76 343 -76Q293 -76 203 -42Q108 -6 93 26Q75
65 75 155Q202 205 280 250Q393 315 488 407Q480 420 467 420Q496 420 433 408T347 395Q262 395 223 432Q233 450 252 484T293 519Q319 519 372 519Q420 521 457 537Q515 563 619 622Q727 684 780 709H808Q818 691 818 651Z" />
<glyph unicode="[" glyph-name="bracketleft" horiz-adv-x="333" />
</font>
</defs>
</svg>
